<?xml version="1.0" encoding="utf-8"?>
<!-- Generator: Adobe Illustrator 24.1.2, SVG Export Plug-In . SVG Version: 6.00 Build 0)  -->
<svg version="1.1" xmlns="http://www.w3.org/2000/svg" xmlns:xlink="http://www.w3.org/1999/xlink" x="0px" y="0px"
	 viewBox="0 0 399 403" style="enable-background:new 0 0 399 403;" xml:space="preserve">
<style type="text/css">
	.st0{display:none;}
	.st1{display:inline;fill:#26006E;}
	.st2{fill:#0C7CEB;}
	.st3{fill:#00DFBA;}
	.st4{fill:#FE2BF1;}
</style>
<g id="Background" class="st0">
	<rect x="-1049" y="-306" class="st1" width="1600" height="1200"/>
</g>
<g id="Hand_icons">
	<g>
		<path class="st2" d="M151,219.6h40v-43.8c0-9.2,3.9-17.6,10.1-23.5l15.3-108.9c0.8-6-0.7-12-4.3-16.8c-3.6-4.8-9-8-15-8.8
			c-6-0.8-12,0.7-16.8,4.3c-4.8,3.6-8,9-8.8,15l-21.2,145.5c-0.3,2-2,3.4-4,3.4s-3.7-1.5-4-3.4L121.1,36.6c-0.8-6-4-11.3-8.8-15
			c-4.8-3.6-10.8-5.2-16.8-4.3c-12.4,1.7-21,13.2-19.3,25.6C82,86.7,86.5,118,89.7,140.8c8.2,57.8,9.6,67.6,9.9,108.5
			C109.9,231.6,129.1,219.6,151,219.6z"/>
		<path class="st2" d="M280.1,268.4c-11.3,0-21.2-5.8-27-14.5c-6.3,17-22.7,29.1-41.9,29.1h-16c14.3,9.1,23.9,25.1,23.9,43.4v14
			c0,2.2-1.8,4-4,4c-2.2,0-4-1.8-4-4v-14c0-23.9-19.5-43.4-43.4-43.4c-2.2,0-4-1.8-4-4c0,0,0,0,0,0c0-2.2,1.8-4,4-4h43.5
			c9,0,17.3-3.3,23.7-8.7c3.3-2.8,6-6.1,8.2-9.8c2.9-5.1,4.6-11,4.8-17.3c0-0.3,0-0.5,0-0.8c0-0.6-0.1-1.1-0.2-1.7
			c0-0.1,0-0.3,0-0.4c-1-4.9-5.3-8.6-10.5-8.6H199h-4h-4h-40c-28.3,0-51.4,23-51.4,51.4c0,0,0,0,0,0s0,0,0,0
			c0,30.6,11.5,58.2,32.4,77.8c20.5,19.2,48.5,29.2,76.8,27.4c53.6-3.5,95.6-50,95.6-105.8v-21.1
			C298.5,264.1,289.8,268.4,280.1,268.4z"/>
		<path class="st2" d="M280.1,177c-13.4,0-24.4,10.9-24.4,24.4v34.3c0.1,0.8,0.2,1.7,0.2,2.6c0,0.2,0,0.4,0,0.6
			c1.4,12.1,11.7,21.5,24.2,21.5c13.4,0,24.4-10.9,24.4-24.4v-34.7C304.5,187.9,293.5,177,280.1,177z"/>
		<path class="st2" d="M215.5,152.7c-0.4,0.1-0.7,0.2-1.1,0.4c-0.3,0.1-0.7,0.3-1,0.4c-0.4,0.2-0.7,0.3-1.1,0.5
			c-0.3,0.2-0.6,0.3-0.9,0.5c-0.4,0.2-0.7,0.4-1.1,0.7c-0.3,0.2-0.5,0.3-0.8,0.5c-0.4,0.3-0.8,0.6-1.1,0.9c-0.2,0.2-0.4,0.3-0.7,0.5
			c-5.3,4.5-8.7,11.2-8.7,18.7v43.8h38.3c3.9,0,7.5,1.2,10.5,3.2v-21.4v0v-25.6c0-12.6-9.6-23-21.9-24.2c-0.8-0.1-1.6-0.1-2.5-0.1
			c-0.8,0-1.6,0-2.3,0.1c-0.3,0-0.6,0.1-0.9,0.1c-0.4,0.1-0.9,0.1-1.3,0.2c-0.4,0.1-0.7,0.2-1.1,0.2c-0.4,0.1-0.7,0.2-1.1,0.3
			C216.2,152.5,215.8,152.6,215.5,152.7z"/>
	</g>
	<path class="st3" d="M-174.1,94.1c-10,0-18.1,8.1-18.1,18.1v86.4c0,2.2-1.8,4-4,4s-4-1.8-4-4v-86.4V69.7c0-11.7-9.5-21.2-21.2-21.2
		c-6,0-11.4,2.2-15.3,6.3c-3.8,3.9-5.9,9.3-5.9,15v1.6v127.2c0,2.2-1.8,4-4,4s-4-1.8-4-4V71.4c0-12.6-10.3-22.9-22.9-22.9
		c-14.3,0-22.9,12.4-22.9,24.3v22.8v103c0,2.2-1.8,4-4,4s-4-1.8-4-4v-103c0-11.7-9.5-21.2-21.2-21.2c-13.3,0-21.2,11.5-21.2,22.5
		v156.3h47c18.8,0,36.6,8.2,48.9,22.4c1.4,1.7,1.3,4.2-0.4,5.6c-0.8,0.7-1.7,1-2.6,1c-1.1,0-2.2-0.5-3-1.4
		c-10.8-12.5-26.4-19.6-42.8-19.6h-51c-0.2,0-0.4,0-0.5-0.1c-0.1,0-0.1,0-0.2,0c-0.3-0.1-0.7-0.2-1-0.3c-0.1,0-0.1-0.1-0.2-0.1
		c-0.3-0.1-0.5-0.3-0.7-0.5c0,0-0.1,0-0.1-0.1l-19.8-18.6c-7.3-6.9-16.6-10.3-25.9-10.3c-9.6,0-19.3,3.7-26.7,11
		c-3.8,3.7-3.9,9.7-0.3,13.6l75.1,81.5c30.1,33.4,60.7,47,105.7,47c49.2,0,89.2-40.4,89.2-90.1V113.1
		C-156,103.9-162.4,94.1-174.1,94.1z"/>
	<g>
		<path class="st4" d="M-654.6,207.1v-16.3v-37.1c0-14.7-11.9-26.6-26.6-26.6c-14.7,0-26.6,11.9-26.6,26.6v0.3v51.6h46.9
			C-658.7,205.6-656.5,206.2-654.6,207.1z"/>
		<path class="st4" d="M-777.7,205.6V154v-2.4c0-12.3-10-22.2-22.2-22.2c-12.3,0-22.2,10-22.2,22.2v66.5c9.7-7.8,22-12.5,35.4-12.5
			H-777.7z"/>
		<path class="st4" d="M-621.9,261.2c-12.1,0-22.6-6.6-28.3-16.4c-7.3,18.2-25.2,31.1-46,31.1h-33.3c15.7,9.6,26.2,26.9,26.2,46.6
			v15c0,2.2-1.8,4-4,4c-2.2,0-4-1.8-4-4v-15c0-25.7-20.9-46.6-46.6-46.6h-0.7c-2.2,0-4-1.8-4-4c0,0,0,0,0,0c0-2.2,1.8-4,4-4h0.7
			h61.7c22.9,0,41.6-18.6,41.6-41.6v-6.4c0-3.5-2.8-6.3-6.3-6.3h-50.9h-61.8h-13c-14.8,0-28,6.7-36.9,17.1c-0.7,0.8-1.3,1.6-1.9,2.4
			c-0.3,0.3-0.5,0.7-0.7,1c-0.6,0.9-1.2,1.7-1.7,2.6c-0.2,0.3-0.3,0.6-0.5,0.9c-0.6,1-1.1,1.9-1.6,2.9c-0.1,0.2-0.2,0.3-0.2,0.5
			c-0.6,1.2-1.1,2.3-1.5,3.5c-0.1,0.2-0.1,0.3-0.2,0.5c-0.5,1.2-0.9,2.5-1.2,3.7c0,0.2-0.1,0.3-0.1,0.5c-0.3,1.3-0.6,2.5-0.9,3.8
			c0,0.2-0.1,0.3-0.1,0.5c-0.2,1.3-0.4,2.6-0.5,3.9c0,0.2,0,0.3,0,0.5c-0.1,1.4-0.2,2.7-0.2,4.1c0,3.3,0.2,6.5,0.4,9.8
			c5,62.8,57.7,112.5,121.8,112.5h14.5c55.8,0,101.2-45.4,101.2-101.2v-33.3C-603.2,256.7-612,261.2-621.9,261.2z"/>
		<path class="st4" d="M-715.8,154c0-14.8-12.1-26.9-26.9-26.9c-14.8,0-26.9,12.1-26.9,26.9v51.6h53.8V154z"/>
		<path class="st4" d="M-621.9,166.1c-13.6,0-24.7,11.1-24.7,24.7v29.1v6.4v2.1c0,13.6,11.1,24.7,24.7,24.7
			c13.6,0,24.7-11.1,24.7-24.7v-37.6C-597.2,177.2-608.3,166.1-621.9,166.1z"/>
	</g>
</g>
<g id="Text">
	<g>
		<g>
			<text transform="matrix(1 0 0 1 65.918 553.5781)"><tspan x="0" y="0" class="st2" style="font-family:'RobotoCondensed-Bold'; font-size:64px;">SCISSOR</tspan><tspan x="229.6" y="0" class="st2" style="font-family:'RobotoCondensed-Bold'; font-size:64px;">S</tspan></text>
		</g>
	</g>
	<g>
		<g>
			<g>
				<g>
					
						<text transform="matrix(1 0 0 1 -344.1064 553.5781)" class="st3" style="font-family:'RobotoCondensed-Bold'; font-size:64px;">P</text>
				</g>
				<g>
					<text transform="matrix(1 0 0 1 -312.6226 553.5781)"><tspan x="0" y="0" class="st3" style="font-family:'RobotoCondensed-Bold'; font-size:64px;">APE</tspan><tspan x="106.4" y="0" class="st3" style="font-family:'RobotoCondensed-Bold'; font-size:64px;">R</tspan></text>
				</g>
			</g>
		</g>
	</g>
	<g>
		<g>
			<g>
				<g>
					<text transform="matrix(1 0 0 1 -799.0947 553.5781)"><tspan x="0" y="0" class="st4" style="font-family:'RobotoCondensed-Bold'; font-size:64px;">ROC</tspan><tspan x="117.6" y="0" class="st4" style="font-family:'RobotoCondensed-Bold'; font-size:64px;">K</tspan></text>
				</g>
			</g>
		</g>
	</g>
</g>
</svg>
